<svg width="48" height="48" viewBox="0 0 48 48" fill="none" xmlns="http://www.w3.org/2000/svg">
<circle cx="24" cy="24" r="24" fill="#F7F4FE"/>
<circle cx="24" cy="24" r="17" fill="#EFE9FF"/>
<path d="M27.1141 21.3569C26.7589 21.57 26.6438 22.0307 26.8569 22.3859C27.07 22.7411 27.5307 22.8562 27.8859 22.6431L27.1141 21.3569ZM31.25 19.75H32C32 19.4798 31.8547 19.2305 31.6195 19.0974C31.3844 18.9642 31.0958 18.9679 30.8641 19.1069L31.25 19.75ZM31.25 28.25L30.8641 28.8931C31.0958 29.0321 31.3844 29.0358 31.6195 28.9026C31.8547 28.7695 32 28.5202 32 28.25H31.25ZM27.8859 25.3569C27.5307 25.1438 27.07 25.2589 26.8569 25.6141C26.6438 25.9693 26.7589 26.43 27.1141 26.6431L27.8859 25.3569ZM27.8859 22.6431L31.6359 20.3931L30.8641 19.1069L27.1141 21.3569L27.8859 22.6431ZM30.5 19.75V28.25H32V19.75H30.5ZM31.6359 27.6069L27.8859 25.3569L27.1141 26.6431L30.8641 28.8931L31.6359 27.6069ZM18.75 19.5H25.25V18H18.75V19.5ZM26.5 20.75V27.25H28V20.75H26.5ZM25.25 28.5H18.75V30H25.25V28.5ZM17.5 27.25V20.75H16V27.25H17.5ZM18.75 28.5C18.0596 28.5 17.5 27.9404 17.5 27.25H16C16 28.7688 17.2312 30 18.75 30V28.5ZM26.5 27.25C26.5 27.9404 25.9404 28.5 25.25 28.5V30C26.7688 30 28 28.7688 28 27.25H26.5ZM25.25 19.5C25.9404 19.5 26.5 20.0596 26.5 20.75H28C28 19.2312 26.7688 18 25.25 18V19.5ZM18.75 18C17.2312 18 16 19.2312 16 20.75H17.5C17.5 20.0596 18.0596 19.5 18.75 19.5V18Z" fill="#6421F2"/>
</svg>
